<mxfile host="app.diagrams.net" modified="2023-12-27T01:41:08.553Z" agent="Mozilla/5.0 (Windows NT 10.0; Win64; x64) AppleWebKit/537.36 (KHTML, like Gecko) Chrome/120.0.0.0 Safari/537.36" version="22.1.12" etag="U-4RKhvwz1fPl_APADgu" type="github">
  <diagram name="Page-1" id="zIt6suvhfcSIrV1Pep9D">
    <mxGraphModel>
      <root>
        <mxCell id="0" />
        <mxCell id="1" parent="0" />
      </root>
    </mxGraphModel>
  </diagram>
</mxfile>
